<svg xmlns="http://www.w3.org/2000/svg" xmlns:xlink="http://www.w3.org/1999/xlink" width="2000" zoomAndPan="magnify" viewBox="0 0 1500 1499.999933" height="2000" preserveAspectRatio="xMidYMid meet" version="1.0"><defs><g/><clipPath id="bae4a57cff"><path d="M 955.496094 612.289062 L 1230.914062 612.289062 L 1230.914062 887.710938 L 955.496094 887.710938 Z M 955.496094 612.289062 " clip-rule="nonzero"/></clipPath><clipPath id="a25cf930e4"><path d="M 1093.203125 612.289062 C 1017.148438 612.289062 955.496094 673.945312 955.496094 750 C 955.496094 826.054688 1017.148438 887.710938 1093.203125 887.710938 C 1169.261719 887.710938 1230.914062 826.054688 1230.914062 750 C 1230.914062 673.945312 1169.261719 612.289062 1093.203125 612.289062 Z M 1093.203125 612.289062 " clip-rule="nonzero"/></clipPath><clipPath id="65b1b78eae"><path d="M 0.496094 0.289062 L 275.914062 0.289062 L 275.914062 275.710938 L 0.496094 275.710938 Z M 0.496094 0.289062 " clip-rule="nonzero"/></clipPath><clipPath id="4e9d8970a6"><path d="M 138.203125 0.289062 C 62.148438 0.289062 0.496094 61.945312 0.496094 138 C 0.496094 214.054688 62.148438 275.710938 138.203125 275.710938 C 214.261719 275.710938 275.914062 214.054688 275.914062 138 C 275.914062 61.945312 214.261719 0.289062 138.203125 0.289062 Z M 138.203125 0.289062 " clip-rule="nonzero"/></clipPath><clipPath id="a9bcd8d39b"><rect x="0" width="276" y="0" height="276"/></clipPath><clipPath id="97de997326"><rect x="0" width="654" y="0" height="205"/></clipPath><clipPath id="fcacbb6466"><path d="M 0.558594 121 L 42 121 L 42 159 L 0.558594 159 Z M 0.558594 121 " clip-rule="nonzero"/></clipPath><clipPath id="883870ce88"><rect x="0" width="200" y="0" height="213"/></clipPath><clipPath id="d3991d3499"><rect x="0" width="440" y="0" height="54"/></clipPath></defs><rect x="-150" width="1800" fill="#ffffff" y="-149.999993" height="1799.99992" fill-opacity="1"/><rect x="-150" width="1800" fill="#ff3131" y="-149.999993" height="1799.99992" fill-opacity="1"/><g clip-path="url(#bae4a57cff)"><g clip-path="url(#a25cf930e4)"><g transform="matrix(1, 0, 0, 1, 955, 612)"><g clip-path="url(#a9bcd8d39b)"><g clip-path="url(#65b1b78eae)"><g clip-path="url(#4e9d8970a6)"><path fill="#000000" d="M 0.496094 0.289062 L 275.914062 0.289062 L 275.914062 275.710938 L 0.496094 275.710938 Z M 0.496094 0.289062 " fill-opacity="1" fill-rule="nonzero"/></g></g></g></g></g></g><g transform="matrix(1, 0, 0, 1, 282, 644)"><g clip-path="url(#97de997326)"><g fill="#000000" fill-opacity="1"><g transform="translate(4.732558, 136.617974)"><g><path d="M 179.921875 -78.453125 L 179.921875 -13.828125 L 200.796875 -13.828125 L 200.796875 0 L 166.078125 0 L 166.078125 -64.625 L 143.796875 -64.625 C 126.484375 -64.625 117.828125 -56.441406 117.828125 -40.078125 L 117.828125 17.640625 L 56.578125 17.640625 C 25.816406 17.640625 10.4375 2.960938 10.4375 -26.390625 L 10.4375 -54.75 L 24.265625 -54.75 L 24.265625 -27.796875 C 24.265625 -17.265625 27.320312 -9.363281 33.4375 -4.09375 C 39.550781 1.175781 48.253906 3.8125 59.546875 3.8125 L 103.859375 3.8125 L 103.859375 -39.65625 C 103.859375 -52.445312 107.21875 -62.109375 113.9375 -68.640625 C 120.664062 -75.179688 130.523438 -78.453125 143.515625 -78.453125 Z M 58.703125 34.859375 C 61.054688 34.859375 63.03125 35.585938 64.625 37.046875 C 66.226562 38.503906 67.03125 40.359375 67.03125 42.609375 C 67.03125 44.960938 66.207031 46.84375 64.5625 48.25 C 62.914062 49.664062 60.960938 50.375 58.703125 50.375 C 56.535156 50.375 54.628906 49.664062 52.984375 48.25 C 51.335938 46.84375 50.515625 44.960938 50.515625 42.609375 C 50.515625 40.359375 51.3125 38.503906 52.90625 37.046875 C 54.507812 35.585938 56.441406 34.859375 58.703125 34.859375 Z M 85.796875 34.859375 C 88.148438 34.859375 90.125 35.585938 91.71875 37.046875 C 93.320312 38.503906 94.125 40.359375 94.125 42.609375 C 94.125 44.960938 93.300781 46.84375 91.65625 48.25 C 90.007812 49.664062 88.054688 50.375 85.796875 50.375 C 83.628906 50.375 81.722656 49.664062 80.078125 48.25 C 78.429688 46.84375 77.609375 44.960938 77.609375 42.609375 C 77.609375 40.359375 78.40625 38.503906 80 37.046875 C 81.601562 35.585938 83.535156 34.859375 85.796875 34.859375 Z M 85.796875 34.859375 "/></g></g></g><g fill="#000000" fill-opacity="1"><g transform="translate(202.663148, 136.617974)"><g><path d="M 113.171875 0 L 0 0 L 0 -13.828125 L 22.71875 -13.828125 C 19.707031 -19.847656 17.472656 -25.328125 16.015625 -30.265625 C 14.554688 -35.203125 13.828125 -39.554688 13.828125 -43.328125 C 13.828125 -55.171875 18.550781 -64.335938 28 -70.828125 C 37.457031 -77.328125 50.75 -80.578125 67.875 -80.578125 C 79.164062 -80.578125 93.039062 -78.269531 109.5 -73.65625 L 105.96875 -60.53125 C 98.257812 -62.601562 91.226562 -64.15625 84.875 -65.1875 C 78.53125 -66.226562 73.285156 -66.75 69.140625 -66.75 C 55.597656 -66.75 45.203125 -64.535156 37.953125 -60.109375 C 30.710938 -55.691406 27.09375 -49.296875 27.09375 -40.921875 C 27.09375 -33.203125 30.148438 -24.171875 36.265625 -13.828125 L 113.171875 -13.828125 Z M 113.171875 0 "/></g></g></g><g fill="#000000" fill-opacity="1"><g transform="translate(323.424755, 136.617974)"><g><path d="M 103.859375 -38.09375 L 103.859375 -13.828125 L 124.171875 -13.828125 L 124.171875 0 L 6.765625 0 L 6.765625 -13.828125 L 90.734375 -13.828125 L 90.734375 -39.234375 C 90.734375 -47.503906 88.660156 -53.800781 84.515625 -58.125 C 80.378906 -62.457031 74.171875 -64.625 65.890625 -64.625 L 31.75 -64.625 L 31.75 -78.453125 L 63.921875 -78.453125 C 77.472656 -78.453125 87.515625 -75.066406 94.046875 -68.296875 C 100.585938 -61.523438 103.859375 -51.457031 103.859375 -38.09375 Z M 103.859375 -38.09375 "/></g></g></g><g fill="#000000" fill-opacity="1"><g transform="translate(444.750729, 136.617974)"><g><path d="M 72.953125 0 L -0.140625 0 L -0.140625 -13.828125 L 28.078125 -13.828125 L 28.078125 -78.453125 L 41.90625 -78.453125 L 41.90625 -13.828125 L 72.953125 -13.828125 Z M 22.15625 32.734375 C 19.988281 32.734375 18.082031 32.023438 16.4375 30.609375 C 14.789062 29.203125 13.96875 27.320312 13.96875 24.96875 C 13.96875 22.71875 14.765625 20.863281 16.359375 19.40625 C 17.960938 17.945312 19.894531 17.21875 22.15625 17.21875 C 24.507812 17.21875 26.484375 17.945312 28.078125 19.40625 C 29.679688 20.863281 30.484375 22.71875 30.484375 24.96875 C 30.484375 27.320312 29.660156 29.203125 28.015625 30.609375 C 26.367188 32.023438 24.414062 32.734375 22.15625 32.734375 Z M 49.25 32.734375 C 47.082031 32.734375 45.175781 32.023438 43.53125 30.609375 C 41.882812 29.203125 41.0625 27.320312 41.0625 24.96875 C 41.0625 22.71875 41.859375 20.863281 43.453125 19.40625 C 45.054688 17.945312 46.988281 17.21875 49.25 17.21875 C 51.601562 17.21875 53.578125 17.945312 55.171875 19.40625 C 56.773438 20.863281 57.578125 22.71875 57.578125 24.96875 C 57.578125 27.320312 56.753906 29.203125 55.109375 30.609375 C 53.460938 32.023438 51.507812 32.734375 49.25 32.734375 Z M 49.25 32.734375 "/></g></g></g><g fill="#000000" fill-opacity="1"><g transform="translate(515.006892, 136.617974)"><g><path d="M 51.078125 0 L -0.140625 0 L -0.140625 -13.828125 L 18.765625 -13.828125 L 18.765625 -78.453125 L 32.734375 -78.453125 L 32.734375 -13.828125 L 51.078125 -13.828125 Z M 26.25 32.875 C 23.988281 32.875 22.007812 32.164062 20.3125 30.75 C 18.625 29.34375 17.78125 27.414062 17.78125 24.96875 C 17.78125 22.71875 18.601562 20.863281 20.25 19.40625 C 21.894531 17.945312 23.894531 17.21875 26.25 17.21875 C 28.40625 17.21875 30.285156 17.945312 31.890625 19.40625 C 33.492188 20.863281 34.296875 22.71875 34.296875 24.96875 C 34.296875 27.414062 33.492188 29.34375 31.890625 30.75 C 30.285156 32.164062 28.40625 32.875 26.25 32.875 Z M 26.25 32.875 "/></g></g></g><g fill="#000000" fill-opacity="1"><g transform="translate(563.396149, 136.617974)"><g><path d="M 17.921875 -13.828125 L 17.921875 -114.4375 L 31.75 -114.4375 L 31.75 0 L 0 0 L 0 -13.828125 Z M 17.921875 -13.828125 "/></g></g></g><g fill="#000000" fill-opacity="1"><g transform="translate(609.669323, 136.617974)"><g><path d="M 28.359375 0 L 14.53125 0 L 14.53125 -114.4375 L 28.359375 -114.4375 Z M 28.359375 0 "/></g></g></g></g></g><g transform="matrix(1, 0, 0, 1, 934, 643)"><g clip-path="url(#883870ce88)"><g clip-path="url(#fcacbb6466)"><g fill="#ff3131" fill-opacity="1"><g transform="translate(0.622824, 158.832604)"><g><path d="M 0 -37.78125 L 40.84375 -37.78125 L 40.84375 -0.171875 L 0 -0.171875 Z M 0 -37.78125 "/></g></g></g></g><g fill="#ff3131" fill-opacity="1"><g transform="translate(38.39411, 158.832604)"><g><path d="M 0 -37.78125 L 40.84375 -37.78125 L 40.84375 -0.171875 L 0 -0.171875 Z M 0 -37.78125 "/></g></g></g><g fill="#ff3131" fill-opacity="1"><g transform="translate(76.165395, 158.832604)"><g><path d="M 0 -37.78125 L 40.84375 -37.78125 L 40.84375 -0.171875 L 0 -0.171875 Z M 0 -37.78125 "/></g></g></g><g fill="#ff3131" fill-opacity="1"><g transform="translate(113.936681, 158.832604)"><g><path d="M 0 -37.78125 L 40.84375 -37.78125 L 40.84375 -0.171875 L 0 -0.171875 Z M 0 -37.78125 "/></g></g></g><g fill="#ff3131" fill-opacity="1"><g transform="translate(151.707967, 158.832604)"><g><path d="M 6.375 -37.78125 L 6.375 -81.765625 L 43.984375 -81.765625 L 43.984375 -0.171875 L 0 -0.171875 L 0 -37.78125 Z M 6.375 43.828125 L 6.375 6.21875 L 43.984375 6.21875 L 43.984375 43.828125 Z M 6.375 43.828125 "/></g></g></g></g></g><g transform="matrix(1, 0, 0, 1, 534, 958)"><g clip-path="url(#d3991d3499)"><g fill="#000000" fill-opacity="1"><g transform="translate(1.550031, 35.59825)"><g><path d="M 2.78125 0 L 2.78125 -22.890625 L 5.359375 -22.890625 L 5.359375 -2.59375 L 11.46875 -2.59375 L 11.46875 0 Z M 2.78125 0 "/></g></g></g><g fill="#000000" fill-opacity="1"><g transform="translate(11.709191, 35.59825)"><g><path d="M -1.296875 0 L -1.296875 -2.59375 L 4.8125 -2.59375 L 4.8125 -12.765625 L 7.390625 -12.765625 L 7.390625 -2.59375 L 13.5 -2.59375 L 13.5 0 Z M 4.8125 -17.5625 L 4.8125 -20.90625 L 7.390625 -20.90625 L 7.390625 -17.5625 Z M 4.8125 -17.5625 "/></g></g></g><g fill="#000000" fill-opacity="1"><g transform="translate(23.900144, 35.59825)"><g><path d="M -1.296875 0 L -1.296875 -2.59375 L 6.0625 -2.59375 C 5.664062 -3.101562 5.359375 -3.679688 5.140625 -4.328125 C 4.921875 -4.972656 4.8125 -5.648438 4.8125 -6.359375 C 4.8125 -7.710938 5.191406 -8.929688 5.953125 -10.015625 C 6.722656 -11.109375 7.695312 -11.875 8.875 -12.3125 L 8.875 -14.796875 L 20.3125 -14.796875 C 21.664062 -14.796875 22.898438 -14.460938 24.015625 -13.796875 C 25.140625 -13.128906 26.035156 -12.234375 26.703125 -11.109375 C 27.367188 -9.992188 27.703125 -8.753906 27.703125 -7.390625 C 27.703125 -6.035156 27.367188 -4.796875 26.703125 -3.671875 C 26.035156 -2.554688 25.140625 -1.664062 24.015625 -1 C 22.898438 -0.332031 21.664062 0 20.3125 0 Z M 7.390625 -6.359375 C 7.390625 -5.347656 7.753906 -4.472656 8.484375 -3.734375 C 9.210938 -2.992188 10.082031 -2.613281 11.09375 -2.59375 L 14.984375 -2.59375 L 14.984375 -6.359375 C 14.984375 -7.421875 14.613281 -8.320312 13.875 -9.0625 C 13.132812 -9.800781 12.234375 -10.171875 11.171875 -10.171875 C 10.140625 -10.171875 9.25 -9.800781 8.5 -9.0625 C 7.757812 -8.320312 7.390625 -7.421875 7.390625 -6.359375 Z M 13.796875 -12.203125 C 14.910156 -11.710938 15.816406 -10.941406 16.515625 -9.890625 C 17.210938 -8.847656 17.5625 -7.671875 17.5625 -6.359375 L 17.5625 -2.59375 L 20.3125 -2.59375 C 21.195312 -2.59375 22.003906 -2.804688 22.734375 -3.234375 C 23.460938 -3.671875 24.039062 -4.25 24.46875 -4.96875 C 24.894531 -5.695312 25.109375 -6.503906 25.109375 -7.390625 C 25.109375 -8.285156 24.894531 -9.09375 24.46875 -9.8125 C 24.039062 -10.539062 23.460938 -11.117188 22.734375 -11.546875 C 22.003906 -11.984375 21.195312 -12.203125 20.3125 -12.203125 Z M 13.796875 -12.203125 "/></g></g></g><g fill="#000000" fill-opacity="1"><g transform="translate(54.340604, 35.59825)"><g/></g></g><g fill="#000000" fill-opacity="1"><g transform="translate(64.065891, 35.59825)"><g><path d="M 14.234375 8.140625 C 12.660156 8.140625 11.175781 7.84375 9.78125 7.25 C 8.382812 6.65625 7.160156 5.832031 6.109375 4.78125 C 5.066406 3.738281 4.25 2.519531 3.65625 1.125 C 3.070312 -0.269531 2.78125 -1.753906 2.78125 -3.328125 L 2.78125 -6.65625 L 5.359375 -6.65625 L 5.359375 -3.328125 C 5.359375 -1.703125 5.757812 -0.21875 6.5625 1.125 C 7.363281 2.46875 8.429688 3.539062 9.765625 4.34375 C 11.097656 5.144531 12.585938 5.546875 14.234375 5.546875 C 15.867188 5.546875 17.359375 5.144531 18.703125 4.34375 C 20.046875 3.539062 21.109375 2.46875 21.890625 1.125 C 22.679688 -0.21875 23.078125 -1.703125 23.078125 -3.328125 L 23.078125 -12.765625 L 25.671875 -12.765625 L 25.671875 -3.328125 C 25.671875 -3.078125 25.671875 -2.832031 25.671875 -2.59375 L 31.78125 -2.59375 L 31.78125 0 L 25.1875 0 C 24.71875 1.582031 23.945312 2.984375 22.875 4.203125 C 21.800781 5.421875 20.523438 6.378906 19.046875 7.078125 C 17.566406 7.785156 15.960938 8.140625 14.234375 8.140625 Z M 12.953125 -17.5625 L 12.953125 -20.90625 L 15.53125 -20.90625 L 15.53125 -17.5625 Z M 12.953125 -17.5625 "/></g></g></g><g fill="#000000" fill-opacity="1"><g transform="translate(94.506352, 35.59825)"><g><path d="M -1.296875 0 L -1.296875 -2.59375 L 6.578125 -2.59375 C 6.035156 -3.226562 5.601562 -3.957031 5.28125 -4.78125 C 4.96875 -5.613281 4.8125 -6.484375 4.8125 -7.390625 C 4.8125 -8.753906 5.144531 -9.992188 5.8125 -11.109375 C 6.476562 -12.234375 7.367188 -13.128906 8.484375 -13.796875 C 9.609375 -14.460938 10.847656 -14.796875 12.203125 -14.796875 C 13.554688 -14.796875 14.796875 -14.460938 15.921875 -13.796875 C 17.046875 -13.128906 17.941406 -12.234375 18.609375 -11.109375 C 19.273438 -9.992188 19.609375 -8.753906 19.609375 -7.390625 L 19.609375 0 Z M 7.390625 -7.390625 C 7.390625 -6.503906 7.601562 -5.703125 8.03125 -4.984375 C 8.46875 -4.273438 9.046875 -3.695312 9.765625 -3.25 C 10.484375 -2.8125 11.269531 -2.59375 12.125 -2.59375 L 17.015625 -2.59375 L 17.015625 -7.390625 C 17.015625 -8.285156 16.796875 -9.09375 16.359375 -9.8125 C 15.929688 -10.539062 15.351562 -11.117188 14.625 -11.546875 C 13.894531 -11.984375 13.085938 -12.203125 12.203125 -12.203125 C 11.316406 -12.203125 10.507812 -11.984375 9.78125 -11.546875 C 9.050781 -11.117188 8.46875 -10.539062 8.03125 -9.8125 C 7.601562 -9.09375 7.390625 -8.285156 7.390625 -7.390625 Z M 7.390625 -7.390625 "/></g></g></g><g fill="#000000" fill-opacity="1"><g transform="translate(116.856464, 35.59825)"><g/></g></g><g fill="#000000" fill-opacity="1"><g transform="translate(126.581752, 35.59825)"><g><path d="M 2.78125 0 L 2.78125 -22.890625 L 5.359375 -22.890625 L 5.359375 0 Z M 0.734375 -26.265625 L 0.734375 -27.265625 L 2.703125 -27.265625 C 2.328125 -27.753906 2.140625 -28.296875 2.140625 -28.890625 C 2.140625 -29.628906 2.398438 -30.253906 2.921875 -30.765625 C 3.441406 -31.285156 4.054688 -31.546875 4.765625 -31.546875 C 5.503906 -31.546875 6.132812 -31.289062 6.65625 -30.78125 L 5.921875 -30.03125 C 5.597656 -30.351562 5.210938 -30.515625 4.765625 -30.515625 C 4.328125 -30.515625 3.945312 -30.359375 3.625 -30.046875 C 3.300781 -29.742188 3.140625 -29.359375 3.140625 -28.890625 C 3.140625 -28.441406 3.300781 -28.054688 3.625 -27.734375 C 3.945312 -27.421875 4.328125 -27.265625 4.765625 -27.265625 L 7.390625 -27.265625 L 7.390625 -26.265625 Z M 0.734375 -26.265625 "/></g></g></g><g fill="#000000" fill-opacity="1"><g transform="translate(134.709053, 35.59825)"><g><path d="M 2.78125 0 L 2.78125 -2.59375 L 10.25 -2.59375 C 11.113281 -2.59375 11.898438 -2.8125 12.609375 -3.25 C 13.328125 -3.695312 13.898438 -4.273438 14.328125 -4.984375 C 14.765625 -5.703125 14.984375 -6.503906 14.984375 -7.390625 C 14.984375 -8.285156 14.765625 -9.09375 14.328125 -9.8125 C 13.898438 -10.539062 13.320312 -11.117188 12.59375 -11.546875 C 11.863281 -11.984375 11.054688 -12.203125 10.171875 -12.203125 L 4.8125 -12.203125 L 4.8125 -14.796875 L 10.171875 -14.796875 C 11.523438 -14.796875 12.765625 -14.460938 13.890625 -13.796875 C 15.015625 -13.128906 15.90625 -12.234375 16.5625 -11.109375 C 17.226562 -9.992188 17.5625 -8.753906 17.5625 -7.390625 C 17.5625 -6.484375 17.398438 -5.613281 17.078125 -4.78125 C 16.765625 -3.957031 16.335938 -3.226562 15.796875 -2.59375 L 23.640625 -2.59375 L 23.640625 0 Z M 2.78125 0 "/></g></g></g><g fill="#000000" fill-opacity="1"><g transform="translate(157.022212, 35.59825)"><g><path d="M -1.296875 0 L -1.296875 -2.59375 L 4.8125 -2.59375 L 4.8125 -12.765625 L 7.390625 -12.765625 L 7.390625 -2.59375 L 13.5 -2.59375 L 13.5 0 Z M 4.8125 6.109375 L 4.8125 2.78125 L 7.390625 2.78125 L 7.390625 6.109375 Z M 4.8125 6.109375 "/></g></g></g><g fill="#000000" fill-opacity="1"><g transform="translate(169.213164, 35.59825)"><g><path d="M -1.296875 0 L -1.296875 -2.59375 L 9.875 -2.59375 L 9.875 -12.765625 L 12.46875 -12.765625 L 12.46875 0 Z M 3.765625 -17.5625 L 3.765625 -20.90625 L 6.359375 -20.90625 L 6.359375 -17.5625 Z M 9.875 -17.5625 L 9.875 -20.90625 L 12.46875 -20.90625 L 12.46875 -17.5625 Z M 9.875 -17.5625 "/></g></g></g><g fill="#000000" fill-opacity="1"><g transform="translate(184.433395, 35.59825)"><g/></g></g><g fill="#000000" fill-opacity="1"><g transform="translate(194.158682, 35.59825)"><g><path d="M 9.140625 -2.03125 C 7.972656 -2.03125 6.898438 -2.3125 5.921875 -2.875 C 4.953125 -3.445312 4.1875 -4.21875 3.625 -5.1875 C 3.0625 -6.164062 2.78125 -7.234375 2.78125 -8.390625 C 2.78125 -9.578125 3.0625 -10.648438 3.625 -11.609375 C 4.1875 -12.578125 4.953125 -13.347656 5.921875 -13.921875 C 6.898438 -14.503906 7.972656 -14.796875 9.140625 -14.796875 L 15.53125 -14.796875 L 15.53125 -2.59375 L 21.640625 -2.59375 L 21.640625 0 L 12.953125 0 L 12.953125 -2.03125 Z M 5.359375 -8.390625 C 5.359375 -7.359375 5.726562 -6.472656 6.46875 -5.734375 C 7.207031 -4.992188 8.097656 -4.625 9.140625 -4.625 L 12.953125 -4.625 L 12.953125 -12.203125 L 9.140625 -12.203125 C 8.097656 -12.203125 7.207031 -11.832031 6.46875 -11.09375 C 5.726562 -10.351562 5.359375 -9.453125 5.359375 -8.390625 Z M 6.84375 -17.5625 L 6.84375 -20.90625 L 9.4375 -20.90625 L 9.4375 -17.5625 Z M 12.953125 -17.5625 L 12.953125 -20.90625 L 15.53125 -20.90625 L 15.53125 -17.5625 Z M 12.953125 -17.5625 "/></g></g></g><g fill="#000000" fill-opacity="1"><g transform="translate(214.476936, 35.59825)"><g><path d="M -1.296875 0 L -1.296875 -2.59375 L 6.8125 -2.59375 L 6.8125 -12.765625 L 9.390625 -12.765625 L 9.390625 -2.59375 L 17.53125 -2.59375 L 17.53125 0 Z M 3.765625 6.109375 L 3.765625 2.78125 L 6.359375 2.78125 L 6.359375 6.109375 Z M 9.875 6.109375 L 9.875 2.78125 L 12.421875 2.78125 L 12.421875 6.109375 Z M 9.875 6.109375 "/></g></g></g><g fill="#000000" fill-opacity="1"><g transform="translate(230.694652, 35.59825)"><g><path d="M -1.296875 0 L -1.296875 -2.59375 L 4.8125 -2.59375 L 4.8125 -12.765625 L 7.390625 -12.765625 L 7.390625 -2.59375 L 13.5 -2.59375 L 13.5 0 Z M 4.8125 -17.5625 L 4.8125 -20.90625 L 7.390625 -20.90625 L 7.390625 -17.5625 Z M 4.8125 -17.5625 "/></g></g></g><g fill="#000000" fill-opacity="1"><g transform="translate(242.885605, 35.59825)"><g><path d="M -1.296875 0 L -1.296875 -2.59375 L 6.578125 -2.59375 C 6.035156 -3.226562 5.601562 -3.957031 5.28125 -4.78125 C 4.96875 -5.613281 4.8125 -6.484375 4.8125 -7.390625 C 4.8125 -8.753906 5.144531 -9.992188 5.8125 -11.109375 C 6.476562 -12.234375 7.367188 -13.128906 8.484375 -13.796875 C 9.609375 -14.460938 10.847656 -14.796875 12.203125 -14.796875 C 13.554688 -14.796875 14.796875 -14.460938 15.921875 -13.796875 C 17.046875 -13.128906 17.941406 -12.234375 18.609375 -11.109375 C 19.273438 -9.992188 19.609375 -8.753906 19.609375 -7.390625 L 19.609375 -2.59375 L 25.703125 -2.59375 L 25.703125 0 Z M 7.390625 -7.390625 C 7.390625 -6.535156 7.597656 -5.742188 8.015625 -5.015625 C 8.441406 -4.285156 9.007812 -3.703125 9.71875 -3.265625 C 10.4375 -2.835938 11.226562 -2.613281 12.09375 -2.59375 L 17.015625 -2.59375 L 17.015625 -7.390625 C 17.015625 -8.285156 16.796875 -9.09375 16.359375 -9.8125 C 15.929688 -10.539062 15.351562 -11.117188 14.625 -11.546875 C 13.894531 -11.984375 13.085938 -12.203125 12.203125 -12.203125 C 11.316406 -12.203125 10.507812 -11.984375 9.78125 -11.546875 C 9.050781 -11.117188 8.46875 -10.539062 8.03125 -9.8125 C 7.601562 -9.09375 7.390625 -8.285156 7.390625 -7.390625 Z M 7.875 -17.5625 L 7.875 -20.90625 L 10.4375 -20.90625 L 10.4375 -17.5625 Z M 13.9375 -17.5625 L 13.9375 -20.90625 L 16.53125 -20.90625 L 16.53125 -17.5625 Z M 13.9375 -17.5625 "/></g></g></g><g fill="#000000" fill-opacity="1"><g transform="translate(267.267576, 35.59825)"><g><path d="M -1.296875 0 L -1.296875 -2.59375 L 6.8125 -2.59375 L 6.8125 -12.765625 L 9.390625 -12.765625 L 9.390625 -2.59375 L 17.53125 -2.59375 L 17.53125 0 Z M 3.765625 -17.5625 L 3.765625 -20.90625 L 6.359375 -20.90625 L 6.359375 -17.5625 Z M 9.875 -17.5625 L 9.875 -20.90625 L 12.421875 -20.90625 L 12.421875 -17.5625 Z M 9.875 -17.5625 "/></g></g></g><g fill="#000000" fill-opacity="1"><g transform="translate(283.485292, 35.59825)"><g><path d="M -1.296875 0 L -1.296875 -2.59375 L 4.8125 -2.59375 L 4.8125 -22.890625 L 7.390625 -22.890625 L 7.390625 0 Z M -1.296875 0 "/></g></g></g><g fill="#000000" fill-opacity="1"><g transform="translate(293.644453, 35.59825)"><g><path d="M 2.78125 0 L 2.78125 -22.890625 L 5.359375 -22.890625 L 5.359375 0 Z M 2.78125 0 "/></g></g></g><g fill="#000000" fill-opacity="1"><g transform="translate(301.771754, 35.59825)"><g/></g></g><g fill="#000000" fill-opacity="1"><g transform="translate(311.497042, 35.59825)"><g><path d="M 9.140625 -2.03125 C 7.972656 -2.03125 6.898438 -2.3125 5.921875 -2.875 C 4.953125 -3.445312 4.1875 -4.21875 3.625 -5.1875 C 3.0625 -6.164062 2.78125 -7.234375 2.78125 -8.390625 C 2.78125 -9.578125 3.0625 -10.648438 3.625 -11.609375 C 4.1875 -12.578125 4.953125 -13.347656 5.921875 -13.921875 C 6.898438 -14.503906 7.972656 -14.796875 9.140625 -14.796875 L 15.53125 -14.796875 L 15.53125 -2.59375 L 21.640625 -2.59375 L 21.640625 0 L 12.953125 0 L 12.953125 -2.03125 Z M 5.359375 -8.390625 C 5.359375 -7.359375 5.726562 -6.472656 6.46875 -5.734375 C 7.207031 -4.992188 8.097656 -4.625 9.140625 -4.625 L 12.953125 -4.625 L 12.953125 -12.203125 L 9.140625 -12.203125 C 8.097656 -12.203125 7.207031 -11.832031 6.46875 -11.09375 C 5.726562 -10.351562 5.359375 -9.453125 5.359375 -8.390625 Z M 6.84375 -17.5625 L 6.84375 -20.90625 L 9.4375 -20.90625 L 9.4375 -17.5625 Z M 12.953125 -17.5625 L 12.953125 -20.90625 L 15.53125 -20.90625 L 15.53125 -17.5625 Z M 12.953125 -17.5625 "/></g></g></g><g fill="#000000" fill-opacity="1"><g transform="translate(331.815296, 35.59825)"><g><path d="M -1.296875 0 L -1.296875 -2.59375 L 6.578125 -2.59375 C 6.035156 -3.226562 5.601562 -3.957031 5.28125 -4.78125 C 4.96875 -5.613281 4.8125 -6.484375 4.8125 -7.390625 C 4.8125 -8.753906 5.144531 -9.992188 5.8125 -11.109375 C 6.476562 -12.234375 7.367188 -13.128906 8.484375 -13.796875 C 9.609375 -14.460938 10.847656 -14.796875 12.203125 -14.796875 C 13.554688 -14.796875 14.796875 -14.460938 15.921875 -13.796875 C 17.046875 -13.128906 17.941406 -12.234375 18.609375 -11.109375 C 19.273438 -9.992188 19.609375 -8.753906 19.609375 -7.390625 L 19.609375 0 Z M 7.390625 -7.390625 C 7.390625 -6.503906 7.597656 -5.703125 8.015625 -4.984375 C 8.441406 -4.273438 9.019531 -3.695312 9.75 -3.25 C 10.476562 -2.8125 11.269531 -2.59375 12.125 -2.59375 L 17.015625 -2.59375 L 17.015625 -7.390625 C 17.015625 -8.285156 16.796875 -9.09375 16.359375 -9.8125 C 15.929688 -10.539062 15.351562 -11.117188 14.625 -11.546875 C 13.894531 -11.984375 13.085938 -12.203125 12.203125 -12.203125 C 11.316406 -12.203125 10.507812 -11.984375 9.78125 -11.546875 C 9.050781 -11.117188 8.46875 -10.539062 8.03125 -9.8125 C 7.601562 -9.09375 7.390625 -8.285156 7.390625 -7.390625 Z M 10.875 -17.5625 L 10.875 -20.90625 L 13.46875 -20.90625 L 13.46875 -17.5625 Z M 10.875 -17.5625 "/></g></g></g><g fill="#000000" fill-opacity="1"><g transform="translate(354.165408, 35.59825)"><g><path d="M -1.03125 5.515625 C -0.144531 5.515625 0.660156 5.296875 1.390625 4.859375 C 2.117188 4.429688 2.695312 3.851562 3.125 3.125 C 3.550781 2.394531 3.765625 1.585938 3.765625 0.703125 L 3.765625 -12.765625 L 6.359375 -12.765625 L 6.359375 -2.59375 L 12.46875 -2.59375 L 12.46875 0 L 6.359375 0 L 6.359375 0.703125 C 6.359375 2.054688 6.023438 3.296875 5.359375 4.421875 C 4.691406 5.546875 3.796875 6.4375 2.671875 7.09375 C 1.554688 7.757812 0.320312 8.09375 -1.03125 8.09375 Z M -1.03125 5.515625 "/></g></g></g><g fill="#000000" fill-opacity="1"><g transform="translate(365.321988, 35.59825)"><g><path d="M 4 -12.578125 L 3.953125 -12.578125 C 5.140625 -13.296875 6.410156 -13.84375 7.765625 -14.21875 C 9.117188 -14.601562 10.515625 -14.796875 11.953125 -14.796875 C 13.398438 -14.796875 14.796875 -14.601562 16.140625 -14.21875 C 17.484375 -13.84375 18.75 -13.296875 19.9375 -12.578125 L 15.28125 -2.59375 L 25.1875 -2.59375 L 25.1875 0 L 12.828125 0 C 12.515625 0 12.234375 -0.109375 11.984375 -0.328125 C 11.734375 -0.109375 11.453125 0 11.140625 0 L -1.296875 0 L -1.296875 -2.59375 L 8.65625 -2.59375 Z M 7.390625 -11.3125 L 11.5 -2.59375 L 12.421875 -2.59375 L 16.5 -11.3125 C 15.78125 -11.582031 15.035156 -11.796875 14.265625 -11.953125 C 13.503906 -12.117188 12.734375 -12.203125 11.953125 -12.203125 C 11.179688 -12.203125 10.40625 -12.117188 9.625 -11.953125 C 8.851562 -11.796875 8.109375 -11.582031 7.390625 -11.3125 Z M 7.390625 -11.3125 "/></g></g></g><g fill="#000000" fill-opacity="1"><g transform="translate(389.223693, 35.59825)"><g><path d="M -1.296875 0 L -1.296875 -2.59375 L 6.578125 -2.59375 C 6.035156 -3.226562 5.601562 -3.957031 5.28125 -4.78125 C 4.96875 -5.613281 4.8125 -6.484375 4.8125 -7.390625 C 4.8125 -8.753906 5.144531 -9.992188 5.8125 -11.109375 C 6.476562 -12.234375 7.367188 -13.128906 8.484375 -13.796875 C 9.609375 -14.460938 10.847656 -14.796875 12.203125 -14.796875 C 13.554688 -14.796875 14.796875 -14.460938 15.921875 -13.796875 C 17.046875 -13.128906 17.941406 -12.234375 18.609375 -11.109375 C 19.273438 -9.992188 19.609375 -8.753906 19.609375 -7.390625 L 19.609375 -2.59375 L 25.703125 -2.59375 L 25.703125 0 Z M 7.390625 -7.390625 C 7.390625 -6.535156 7.597656 -5.742188 8.015625 -5.015625 C 8.441406 -4.285156 9.007812 -3.703125 9.71875 -3.265625 C 10.4375 -2.835938 11.226562 -2.613281 12.09375 -2.59375 L 17.015625 -2.59375 L 17.015625 -7.390625 C 17.015625 -8.285156 16.796875 -9.09375 16.359375 -9.8125 C 15.929688 -10.539062 15.351562 -11.117188 14.625 -11.546875 C 13.894531 -11.984375 13.085938 -12.203125 12.203125 -12.203125 C 11.316406 -12.203125 10.507812 -11.984375 9.78125 -11.546875 C 9.050781 -11.117188 8.46875 -10.539062 8.03125 -9.8125 C 7.601562 -9.09375 7.390625 -8.285156 7.390625 -7.390625 Z M 7.390625 -7.390625 "/></g></g></g><g fill="#000000" fill-opacity="1"><g transform="translate(413.605665, 35.59825)"><g><path d="M -1.296875 0 L -1.296875 -2.59375 L 4.8125 -2.59375 L 4.8125 -22.890625 L 7.390625 -22.890625 L 7.390625 0 Z M -1.296875 0 "/></g></g></g><g fill="#000000" fill-opacity="1"><g transform="translate(423.764825, 35.59825)"><g><path d="M 2.78125 0 L 2.78125 -22.890625 L 5.359375 -22.890625 L 5.359375 0 Z M 2.78125 0 "/></g></g></g></g></g></svg>